<svg width="24" height="24" viewBox="0 0 24 24" xmlns="http://www.w3.org/2000/svg">
<path fill-rule="evenodd" clip-rule="evenodd" d="M12.0003 4C12.5526 4 13.0003 4.44772 13.0003 5L13.0003 16.5858L18.2929 11.2929C18.6834 10.9024 19.3165 10.9024 19.7071 11.2929C20.0976 11.6834 20.0976 12.3166 19.7071 12.7071L12.7074 19.7072C12.5199 19.8947 12.2655 20.0001 12.0003 20.0001C11.7351 20.0001 11.4807 19.8947 11.2932 19.7072L4.2929 12.7071C3.90237 12.3166 3.90236 11.6834 4.29288 11.2929C4.6834 10.9024 5.31656 10.9024 5.7071 11.2929L11.0003 16.5859L11.0003 5C11.0003 4.44771 11.448 4 12.0003 4Z" fill="current"/>
</svg>
