<svg width="24" height="24" viewBox="0 0 24 24" xmlns="http://www.w3.org/2000/svg">
<path fill-rule="evenodd" clip-rule="evenodd" d="M8.70711 4.70711C9.09763 4.31658 9.09763 3.68342 8.70711 3.29289C8.31658 2.90237 7.68342 2.90237 7.29289 3.29289L2.29289 8.29289C1.90237 8.68342 1.90237 9.31658 2.29289 9.70711L7.29289 14.7071C7.68342 15.0976 8.31658 15.0976 8.70711 14.7071C9.09763 14.3166 9.09763 13.6834 8.70711 13.2929L5.41421 10H15.5C17.9853 10 20 12.0147 20 14.5C20 16.9853 17.9853 19 15.5 19H12C11.4477 19 11 19.4477 11 20C11 20.5523 11.4477 21 12 21H15.5C19.0899 21 22 18.0899 22 14.5C22 10.9101 19.0899 8 15.5 8H5.41421L8.70711 4.70711Z" fill="current"/>
</svg>
