<?xml version="1.0" encoding="utf-8"?>
<svg version="1.1" xmlns="http://www.w3.org/2000/svg" viewBox="0 0 24 24" width="24" height="24">
    <path fill="current" d="M17 4C16.4477 4 16 4.44772 16 5C16 5.55228 16.4477 6 17 6H20.5858L12.2929 14.2929C11.9024 14.6834 11.9024 15.3166 12.2929 15.7071C12.6834 16.0976 13.3166 16.0976 13.7071 15.7071L22 7.41421V11C22 11.5523 22.4477 12 23 12C23.5523 12 24 11.5523 24 11V5C24 4.44772 23.5523 4 23 4H17ZM11.7071 9.70711C12.0976 9.31658 12.0976 8.68342 11.7071 8.29289C11.3166 7.90237 10.6834 7.90237 10.2929 8.29289L2 16.5858V13C2 12.4477 1.55228 12 1 12C0.447715 12 0 12.4477 0 13V19C0 19.5523 0.447715 20 1 20H7C7.55228 20 8 19.5523 8 19C8 18.4477 7.55228 18 7 18H3.41421L11.7071 9.70711Z" />
</svg>
