<?xml version="1.0" encoding="UTF-8"?>
<svg version="1.1" xmlns="http://www.w3.org/2000/svg" viewBox="0 0 24 24" width="24" height="24">
    <g>
        <path fill="current" d="m 5,12 7,7 M 5,12 6.6705989,10.329401 12,5 M 5,12 H 10.671506 19" />
        <path fill="current" d="M 11.292969,4.2929687 5.9628906,9.6230469 4.2929687,11.292969 a 1,1 0 0 0 0,1.414062 l 7.0000003,7 a 1,1 0 0 0 1.414062,0 1,1 0 0 0 0,-1.414062 L 7.4140625,13 H 10.671875 19 a 1,1 0 0 0 1,-1 1,1 0 0 0 -1,-1 H 10.671875 7.4140625 L 12.707031,5.7070312 a 1,1 0 0 0 0,-1.4140625 1,1 0 0 0 -1.414062,0 z"/>
    </g>
</svg>
