<svg width="24" height="24" viewBox="0 0 24 24" xmlns="http://www.w3.org/2000/svg">
<path fill-rule="evenodd" clip-rule="evenodd" d="M7 8C6.44772 8 6 7.55228 6 7C6 6.44772 6.44772 6 7 6H16.9998C16.9999 6 16.9999 6 17 6C17.1356 6 17.2649 6.02699 17.3828 6.07588C17.4999 6.12432 17.6096 6.19595 17.705 6.29078C17.7064 6.29219 17.7078 6.2936 17.7092 6.29502C17.9023 6.48924 17.9992 6.74301 18 6.997C18 6.998 18 6.999 18 7V7.00069V17C18 17.5523 17.5523 18 17 18C16.4477 18 16 17.5523 16 17V9.41421L7.70711 17.7071C7.31658 18.0976 6.68342 18.0976 6.29289 17.7071C5.90237 17.3166 5.90237 16.6834 6.29289 16.2929L14.5858 8H7Z" fill="current"/>
</svg>
