<?xml version="1.0" encoding="UTF-8"?>
<svg
   version="1.1"
   viewBox="0 0 24 24"
   width="24"
   height="24"
   xmlns="http://www.w3.org/2000/svg">
  <g>
    <path fill="current"
       d="M 12.0003,5 5,12.0001 M 12.0003,5 19,12.0001 M 12.0003,5 v 14.0001" />
    <path fill="current"
       d="M 12,4 A 1,1 0 0 0 11.292969,4.2929687 L 4.2929687,11.292969 a 1,1 0 0 0 0,1.414062 1,1 0 0 0 1.4140625,0 L 11,7.4140625 V 19 a 1,1 0 0 0 1,1 1,1 0 0 0 1,-1 V 7.4140625 l 5.292969,5.2929685 a 1,1 0 0 0 1.414062,0 1,1 0 0 0 0,-1.414062 l -7,-7.0000003 A 1,1 0 0 0 12,4 Z" />
  </g>
</svg>
