<svg width="24" height="24" viewBox="0 0 24 24" fill="none" xmlns="http://www.w3.org/2000/svg">
<path fill-rule="evenodd" clip-rule="evenodd" d="M21 1.99756C21.5523 1.99756 22 2.44527 22 2.99756V8.99756C22 9.54984 21.5523 9.99756 21 9.99756H15C14.4477 9.99756 14 9.54984 14 8.99756C14 8.44527 14.4477 7.99756 15 7.99756H18.9286C17.5439 5.60594 14.9587 3.99994 12 3.99994C8.50686 3.99994 5.53417 6.23934 4.4442 9.36383C4.26228 9.88529 3.69208 10.1606 3.17062 9.97864C2.64915 9.79673 2.37389 9.22653 2.5558 8.70506C3.91725 4.80237 7.63006 1.99994 12 1.99994C15.2724 1.99994 18.1764 3.57189 20 5.99923V2.99756C20 2.44527 20.4477 1.99756 21 1.99756ZM2 14.9976C2 14.4453 2.44772 13.9976 3 13.9976H9C9.55228 13.9976 10 14.4453 10 14.9976C10 15.5498 9.55228 15.9976 9 15.9976H5.06867C6.45268 18.3918 9.03936 19.9999 12 19.9999C15.4817 19.9999 18.4463 17.7752 19.545 14.6667C19.7291 14.146 20.3004 13.8731 20.8211 14.0571C21.3418 14.2411 21.6148 14.8125 21.4307 15.3332C20.0584 19.2158 16.3556 21.9999 12 21.9999C8.72759 21.9999 5.82361 20.428 4 18.0006V20.9976C4 21.5498 3.55228 21.9976 3 21.9976C2.44772 21.9976 2 21.5498 2 20.9976V14.9976Z" fill="current"/>
</svg>
