<?xml version="1.0" encoding="utf-8"?>
<svg version="1.1" xmlns="http://www.w3.org/2000/svg" viewBox="0 0 24 24" width="24" height="24"><path fill="current" d="M11.2925 4.29292C10.902 4.68346 10.902 5.31662 11.2926 5.70713L16.5854 10.9997L4.99966 10.9997C4.44738 10.9997 3.99966 11.4474 3.99966 11.9997C3.99966 12.552 4.44738 12.9997 4.99966 12.9997L16.5856 12.9997L11.2925 18.2929C10.902 18.6834 10.902 19.3166 11.2926 19.7071C11.6831 20.0976 12.3163 20.0976 12.7068 19.7071L19.7069 12.7068C19.8944 12.5192 19.9997 12.2649 19.9997 11.9997C19.9997 11.7345 19.8944 11.4801 19.7068 11.2926L12.7068 4.29288C12.3162 3.90237 11.6831 3.90239 11.2925 4.29292Z"/></svg>
