<svg width="24" height="24" viewBox="0 0 24 24" xmlns="http://www.w3.org/2000/svg">
<g id="Arrows &#194;&#183; Recurring">
<path id="Union" fill-rule="evenodd" clip-rule="evenodd" d="M1.99881 2.99878C1.99881 2.44649 2.44653 1.99878 2.99881 1.99878H8.99881C9.55109 1.99878 9.99881 2.44649 9.99881 2.99878V8.99878C9.99881 9.55106 9.55109 9.99878 8.99881 9.99878C8.44653 9.99878 7.99881 9.55106 7.99881 8.99878V5.0702C5.60719 6.45489 4.00119 9.0401 4.00119 11.9988C4.00119 15.4919 6.24059 18.4646 9.36508 19.5546C9.88655 19.7365 10.1618 20.3067 9.97989 20.8282C9.79798 21.3496 9.22778 21.6249 8.70632 21.443C4.80362 20.0815 2.00119 16.3687 2.00119 11.9988C2.00119 8.72637 3.57314 5.82239 6.00048 3.99878H2.99881C2.44653 3.99878 1.99881 3.55106 1.99881 2.99878ZM14.0584 3.17765C14.2424 2.65693 14.8137 2.38401 15.3344 2.56806C19.2171 3.94037 22.0012 7.64315 22.0012 11.9988C22.0012 15.2712 20.4292 18.1752 18.0019 19.9988H20.9988C21.5511 19.9988 21.9988 20.4465 21.9988 20.9988C21.9988 21.5511 21.5511 21.9988 20.9988 21.9988H14.9988C14.4465 21.9988 13.9988 21.5511 13.9988 20.9988V14.9988C13.9988 14.4465 14.4465 13.9988 14.9988 13.9988C15.5511 13.9988 15.9988 14.4465 15.9988 14.9988V18.9301C18.3931 17.5461 20.0012 14.9594 20.0012 11.9988C20.0012 8.51709 17.7765 5.55244 14.6679 4.45374C14.1472 4.26969 13.8743 3.69837 14.0584 3.17765Z" fill="current"/>
</g>
</svg>
