<?xml version="1.0" encoding="utf-8"?><svg version="1.1" xmlns="http://www.w3.org/2000/svg" viewBox="0 0 24 24" width="24" height="24"><path fill="current" d="M12 3C7.02944 3 3 7.02944 3 12C3 16.9706 7.02944 21 12 21C16.9706 21 21 16.9706 21 12C21 7.02944 16.9706 3 12 3ZM1 12C1 5.92487 5.92487 1 12 1C18.0751 1 23 5.92487 23 12C23 18.0751 18.0751 23 12 23C5.92487 23 1 18.0751 1 12ZM12.7071 7.29289L16.7064 11.2922C16.7088 11.2946 16.7112 11.297 16.7136 11.2995C16.8901 11.4792 16.9992 11.7254 17 11.997C17 11.998 17 11.999 17 12C17 12.001 17 12.002 17 12.003C16.9996 12.1375 16.9727 12.2657 16.9241 12.3828C16.8764 12.498 16.8063 12.6062 16.7136 12.7005C16.7112 12.703 16.7088 12.7054 16.7064 12.7078L12.7071 16.7071C12.3166 17.0976 11.6834 17.0976 11.2929 16.7071C10.9024 16.3166 10.9024 15.6834 11.2929 15.2929L13.5858 13H8C7.44772 13 7 12.5523 7 12C7 11.4477 7.44772 11 8 11H13.5858L11.2929 8.70711C10.9024 8.31658 10.9024 7.68342 11.2929 7.29289C11.6834 6.90237 12.3166 6.90237 12.7071 7.29289Z"/></svg>
