<svg width="24" height="24" viewBox="0 0 24 24" xmlns="http://www.w3.org/2000/svg">
<path id="Union" fill-rule="evenodd" clip-rule="evenodd" d="M12 4C7.58172 4 4 7.58172 4 12C4 16.4183 7.58172 20 12 20C15.4817 20 18.4463 17.7753 19.545 14.6668C19.7291 14.146 20.3004 13.8731 20.8211 14.0572C21.3418 14.2412 21.6148 14.8125 21.4307 15.3332C20.0584 19.2159 16.3556 22 12 22C6.47715 22 2 17.5228 2 12C2 6.47715 6.47715 2 12 2C15.2724 2 18.1764 3.57195 20 5.9993V3C20 2.44772 20.4477 2 21 2C21.5523 2 22 2.44772 22 3V9C22 9.55228 21.5523 10 21 10H15C14.4477 10 14 9.55228 14 9C14 8.44772 14.4477 8 15 8H18.93C17.5456 5.60707 14.9597 4 12 4Z" fill="current"/>
</svg>
