<svg width="16" height="16" viewBox="0 0 16 16" xmlns="http://www.w3.org/2000/svg">
<g id="Alert">
<path id="Union" fill-rule="evenodd" clip-rule="evenodd" d="M8 14.4C11.5346 14.4 14.4 11.5346 14.4 8C14.4 4.46538 11.5346 1.6 8 1.6C4.46538 1.6 1.6 4.46538 1.6 8C1.6 11.5346 4.46538 14.4 8 14.4ZM8 16C12.4183 16 16 12.4183 16 8C16 3.58172 12.4183 0 8 0C3.58172 0 0 3.58172 0 8C0 12.4183 3.58172 16 8 16ZM8 12C8.55228 12 9 11.5523 9 11C9 10.4477 8.55228 10 8 10C7.44772 10 7 10.4477 7 11C7 11.5523 7.44772 12 8 12ZM8.8 4.79999C8.8 4.35816 8.44183 3.99999 8 3.99999C7.55817 3.99999 7.2 4.35816 7.2 4.79999V4.80617V4.81238V4.81859V4.82483V4.83107V4.83734V4.84362V4.84991V4.85622V4.86254V4.86888V4.87523V4.8816V4.88798V4.89438V4.90079V4.90721V4.91365V4.9201V4.92657V4.93305V4.93954V4.94605V4.95257V4.9591V4.96565V4.97221V4.97878V4.98537V4.99196V4.99857V5.0052V5.01183V5.01848V5.02514V5.03181V5.03849V5.04519V5.05189V5.05861V5.06534V5.07208V5.07883V5.0856V5.09237V5.09916V5.10595V5.11276V5.11958V5.1264V5.13324V5.14009V5.14695V5.15382V5.1607V5.16758V5.17448V5.18139V5.18831V5.19523V5.20217V5.20912V5.21607V5.22303V5.23V5.23699V5.24398V5.25097V5.25798V5.26499V5.27202V5.27905V5.28609V5.29313V5.30019V5.30725V5.31432V5.3214V5.32848V5.33557V5.34267V5.34978V5.35689V5.36401V5.37113V5.37827V5.38541V5.39255V5.3997V5.40686V5.41403V5.4212V5.42837V5.43555V5.44274V5.44993V5.45713V5.46433V5.47154V5.47875V5.48597V5.49319V5.50042V5.50765V5.51489V5.52213V5.52938V5.53662V5.54388V5.55114V5.5584V5.56566V5.57293V5.5802V5.58748V5.59476V5.60204V5.60932V5.61661V5.6239V5.6312V5.63849V5.64579V5.65309V5.6604V5.6677V5.67501V5.68232V5.68963V5.69694V5.70426V5.71158V5.71889V5.72621V5.73353V5.74086V5.74818V5.7555V5.76283V5.77015V5.77748V5.7848V5.79213V5.79946V5.80678V5.81411V5.82144V5.82876V5.83609V5.84342V5.85074V5.85807V5.86539V5.87271V5.88004V5.88736V5.89468V5.902V5.90931V5.91663V5.92394V5.93126V5.93857V5.94588V5.95318V5.96049V5.96779V5.97509V5.98239V5.98968V5.99697V6.00426V6.01155V6.01883V6.02611V6.03339V6.04066V6.04793V6.0552V6.06246V6.06972V6.07698V6.08423V6.09148V6.09872V6.10596V6.11319V6.12042V6.12765V6.13487V6.14208V6.14929V6.1565V6.1637V6.17089V6.17808V6.18526V6.19244V6.19961V6.20678V6.21394V6.2211V6.22824V6.23539V6.24252V6.24965V6.25677V6.26389V6.271V6.2781V6.28519V6.29228V6.29936V6.30644V6.3135V6.32056V6.32761V6.33465V6.34169V6.34871V6.35573V6.36274V6.36974V6.37674V6.38372V6.3907V6.39766V6.40462V6.41157V6.41851V6.42544V6.43236V6.43928V6.44618V6.45307V6.45995V6.46683V6.47369V6.48054V6.48739V6.49422V6.50104V6.50785V6.51465V6.52144V6.52822V6.53499V6.54175V6.54849V6.55523V6.56195V6.56866V6.57536V6.58205V6.58873V6.59539V6.60205V6.60869V6.61531V6.62193V6.62853V6.63512V6.6417V6.64827V6.65482V6.66136V6.66788V6.6744V6.6809V6.68738V6.69385V6.70031V6.70676V6.71319V6.7196V6.72601V6.73239V6.73877V6.74513V6.75147V6.7578V6.76412V6.77042V6.7767V6.78298V6.78923V6.79547V6.80169V6.8079V6.8141V6.82027V6.82644V6.83258V6.83871V6.84482V6.85092V6.857V6.86307V6.86911V6.87514V6.88116V6.88715V6.89313V6.8991V6.90504V6.91097V6.91688V6.92277V6.92865V6.9345V6.94034V6.94616V6.95197V6.95775V6.96352V6.96927V6.975V6.98071V6.9864V6.99207V6.99772V7.00336V7.00897V7.01457V7.02015V7.0257V7.03124V7.03676V7.04225V7.04773V7.05319V7.05863V7.06404V7.06944V7.07481V7.08017V7.0855V7.09082V7.09611V7.10138V7.10663V7.11186V7.11707V7.12225V7.12742V7.13256V7.13768V7.14278V7.14785V7.15291V7.15794V7.16295V7.16794V7.1729V7.17784V7.18276V7.18766V7.19253V7.19738V7.20221V7.20701V7.21179V7.21654V7.22128V7.22598V7.23067V7.23533V7.23996V7.24458V7.24916V7.25373V7.25826V7.26278V7.26727V7.27173V7.27617V7.28058V7.28497V7.28933V7.29367V7.29798V7.30227V7.30653V7.31077V7.31497V7.31916V7.32331V7.32744V7.33155V7.33562V7.33967V7.3437V7.34769V7.35166V7.35561V7.35952V7.36341V7.36727V7.3711V7.37491V7.37869V7.38243V7.38616V7.38985V7.39352V7.39715V7.40076V7.40434V7.40789V7.41142V7.41491V7.41838V7.42181V7.42522V7.4286V7.43195V7.43526V7.43855V7.44181V7.44504V7.44824V7.45141V7.45455V7.45766V7.46074V7.46379V7.46681V7.46979V7.47275V7.47568V7.47857V7.48143V7.48426V7.48707V7.48983V7.49257V7.49528V7.49795V7.5006V7.50321V7.50578V7.50833V7.51084V7.51332V7.51577V7.51819V7.52057V7.52292V7.52524V7.52752V7.52978V7.53199V7.53418V7.53633V7.53845V7.54053V7.54258V7.54459V7.54658V7.54852V7.55044V7.55232V7.55416V7.55597V7.55774V7.55948V7.56119V7.56286V7.56449V7.56609V7.56766V7.56919V7.57068V7.57214V7.57356V7.57494V7.57629V7.57761V7.57889V7.58013V7.58133V7.5825V7.58363V7.58472V7.58578V7.5868V7.58779V7.58873V7.58964V7.59051V7.59135V7.59214V7.5929V7.59362V7.5943V7.59495V7.59555V7.59612V7.59665V7.59714V7.59759V7.59801V7.59838V7.59872V7.59902V7.59927V7.59949V7.59967V7.59981V7.59991V7.59997L8 7.59999H7.2C7.2 8.04182 7.55817 8.39999 8 8.39999C8.44183 8.39999 8.8 8.04182 8.8 7.59999H8L8.8 7.59997V7.59991V7.59981V7.59967V7.59949V7.59927V7.59902V7.59872V7.59838V7.59801V7.59759V7.59714V7.59665V7.59612V7.59555V7.59495V7.5943V7.59362V7.5929V7.59214V7.59135V7.59051V7.58964V7.58873V7.58779V7.5868V7.58578V7.58472V7.58363V7.5825V7.58133V7.58013V7.57889V7.57761V7.57629V7.57494V7.57356V7.57214V7.57068V7.56919V7.56766V7.56609V7.56449V7.56286V7.56119V7.55948V7.55774V7.55597V7.55416V7.55232V7.55044V7.54852V7.54658V7.54459V7.54258V7.54053V7.53845V7.53633V7.53418V7.53199V7.52978V7.52752V7.52524V7.52292V7.52057V7.51819V7.51577V7.51332V7.51084V7.50833V7.50578V7.50321V7.5006V7.49795V7.49528V7.49257V7.48983V7.48707V7.48426V7.48143V7.47857V7.47568V7.47275V7.46979V7.46681V7.46379V7.46074V7.45766V7.45455V7.45141V7.44824V7.44504V7.44181V7.43855V7.43526V7.43195V7.4286V7.42522V7.42181V7.41838V7.41491V7.41142V7.40789V7.40434V7.40076V7.39715V7.39352V7.38985V7.38616V7.38243V7.37869V7.37491V7.3711V7.36727V7.36341V7.35952V7.35561V7.35166V7.34769V7.3437V7.33967V7.33562V7.33155V7.32744V7.32331V7.31916V7.31497V7.31077V7.30653V7.30227V7.29798V7.29367V7.28933V7.28497V7.28058V7.27617V7.27173V7.26727V7.26278V7.25826V7.25373V7.24916V7.24458V7.23996V7.23533V7.23067V7.22598V7.22128V7.21654V7.21179V7.20701V7.20221V7.19738V7.19253V7.18766V7.18276V7.17784V7.1729V7.16794V7.16295V7.15794V7.15291V7.14785V7.14278V7.13768V7.13256V7.12742V7.12225V7.11707V7.11186V7.10663V7.10138V7.09611V7.09082V7.0855V7.08017V7.07481V7.06944V7.06404V7.05863V7.05319V7.04773V7.04225V7.03676V7.03124V7.0257V7.02015V7.01457V7.00897V7.00336V6.99772V6.99207V6.9864V6.98071V6.975V6.96927V6.96352V6.95775V6.95197V6.94616V6.94034V6.9345V6.92865V6.92277V6.91688V6.91097V6.90504V6.8991V6.89313V6.88715V6.88116V6.87514V6.86911V6.86307V6.857V6.85092V6.84482V6.83871V6.83258V6.82644V6.82027V6.8141V6.8079V6.80169V6.79547V6.78923V6.78298V6.7767V6.77042V6.76412V6.7578V6.75147V6.74513V6.73877V6.73239V6.72601V6.7196V6.71319V6.70676V6.70031V6.69385V6.68738V6.6809V6.6744V6.66788V6.66136V6.65482V6.64827V6.6417V6.63512V6.62853V6.62193V6.61531V6.60869V6.60205V6.59539V6.58873V6.58205V6.57536V6.56866V6.56195V6.55523V6.54849V6.54175V6.53499V6.52822V6.52144V6.51465V6.50785V6.50104V6.49422V6.48739V6.48054V6.47369V6.46683V6.45995V6.45307V6.44618V6.43928V6.43236V6.42544V6.41851V6.41157V6.40462V6.39766V6.3907V6.38372V6.37674V6.36974V6.36274V6.35573V6.34871V6.34169V6.33465V6.32761V6.32056V6.3135V6.30644V6.29936V6.29228V6.28519V6.2781V6.271V6.26389V6.25677V6.24965V6.24252V6.23539V6.22824V6.2211V6.21394V6.20678V6.19961V6.19244V6.18526V6.17808V6.17089V6.1637V6.1565V6.14929V6.14208V6.13487V6.12765V6.12042V6.11319V6.10596V6.09872V6.09148V6.08423V6.07698V6.06972V6.06246V6.0552V6.04793V6.04066V6.03339V6.02611V6.01883V6.01155V6.00426V5.99697V5.98968V5.98239V5.97509V5.96779V5.96049V5.95318V5.94588V5.93857V5.93126V5.92394V5.91663V5.90931V5.902V5.89468V5.88736V5.88004V5.87271V5.86539V5.85807V5.85074V5.84342V5.83609V5.82876V5.82144V5.81411V5.80678V5.79946V5.79213V5.7848V5.77748V5.77015V5.76283V5.7555V5.74818V5.74086V5.73353V5.72621V5.71889V5.71158V5.70426V5.69694V5.68963V5.68232V5.67501V5.6677V5.6604V5.65309V5.64579V5.63849V5.6312V5.6239V5.61661V5.60932V5.60204V5.59476V5.58748V5.5802V5.57293V5.56566V5.5584V5.55114V5.54388V5.53662V5.52938V5.52213V5.51489V5.50765V5.50042V5.49319V5.48597V5.47875V5.47154V5.46433V5.45713V5.44993V5.44274V5.43555V5.42837V5.4212V5.41403V5.40686V5.3997V5.39255V5.38541V5.37827V5.37113V5.36401V5.35689V5.34978V5.34267V5.33557V5.32848V5.3214V5.31432V5.30725V5.30019V5.29313V5.28609V5.27905V5.27202V5.26499V5.25798V5.25097V5.24398V5.23699V5.23V5.22303V5.21607V5.20912V5.20217V5.19523V5.18831V5.18139V5.17448V5.16758V5.1607V5.15382V5.14695V5.14009V5.13324V5.1264V5.11958V5.11276V5.10595V5.09916V5.09237V5.0856V5.07883V5.07208V5.06534V5.05861V5.05189V5.04519V5.03849V5.03181V5.02514V5.01848V5.01183V5.0052V4.99857V4.99196V4.98537V4.97878V4.97221V4.96565V4.9591V4.95257V4.94605V4.93954V4.93305V4.92657V4.9201V4.91365V4.90721V4.90079V4.89438V4.88798V4.8816V4.87523V4.86888V4.86254V4.85622V4.84991V4.84362V4.83734V4.83107V4.82483V4.81859V4.81238V4.80617V4.79999Z" fill="current"/>
</g>
</svg>
