<?xml version="1.0" encoding="utf-8"?><svg xmlns="http://www.w3.org/2000/svg" version="1.1" viewBox="0 0 24 24" width="24" height="24"><path fill="current" d="M10.9266 1.18077C11.2709 0.939744 11.7292 0.939744 12.0735 1.18077L21.5537 7.81692C22.5149 8.48974 22.0388 10 20.8656 10H20V16C20 16.5523 19.5523 17 19 17C18.4478 17 18 16.5523 18 16V10H15V16C15 16.5523 14.5523 17 14 17C13.4478 17 13 16.5523 13 16V10H10V16C10 16.5523 9.55233 17 9.00004 17C8.44776 17 8.00004 16.5523 8.00004 16V10H5.00004V16C5.00004 16.5523 4.55233 17 4.00004 17C3.44776 17 3.00004 16.5523 3.00004 16V10H2.13451C0.961251 10 0.4852 8.48973 1.44636 7.81692L10.9266 1.18077ZM4.67241 8H9.00004H14H18.3277L11.5 3.22066L4.67241 8ZM1.00004 20C1.00004 19.4477 1.44776 19 2.00004 19H21C21.5523 19 22 19.4477 22 20C22 20.5523 21.5523 21 21 21H2.00004C1.44776 21 1.00004 20.5523 1.00004 20Z"/></svg>
