<?xml version="1.0" encoding="utf-8"?><svg version="1.1" xmlns="http://www.w3.org/2000/svg" viewBox="0 0 24 24" width="24" height="24"><path d="M12 5C9.82382 5 7.96992 6.39081 7.28359 8.33513C7.14593 8.72509 6.78244 8.9901 6.36906 9.00186C3.94464 9.07085 2 11.0585 2 13.5C2 15.9853 4.01472 18 6.5 18H18.5C20.433 18 22 16.433 22 14.5C22 12.567 20.433 11 18.5 11C18.3678 11 18.2376 11.0073 18.1098 11.0214C17.8264 11.0527 17.5431 10.9616 17.3311 10.7709C17.1192 10.5802 16.9987 10.3081 17 10.023L17 10C17 7.23858 14.7614 5 12 5ZM5.64791 7.0554C6.7594 4.66168 9.18455 3 12 3C15.5322 3 18.4534 5.61626 18.9315 9.01668C21.7674 9.23674 24 11.6076 24 14.5C24 17.5376 21.5376 20 18.5 20H6.5C2.91015 20 0 17.0899 0 13.5C0 10.199 2.46048 7.4729 5.64791 7.0554Z" fill="current"/></svg>
