<?xml version="1.0" encoding="utf-8"?><svg xmlns="http://www.w3.org/2000/svg" version="1.1" viewBox="0 0 80 80" width="80" height="80"><path fill="current" d="M5 40C5 20.67 20.67 5 40 5C59.33 5 75 20.67 75 40C75 59.33 59.33 75 40 75C20.67 75 5 59.33 5 40ZM40 2C19.0132 2 2 19.0132 2 40C2 60.9868 19.0132 78 40 78C60.9868 78 78 60.9868 78 40C78 19.0132 60.9868 2 40 2ZM41 18.5C41 17.6716 40.3284 17 39.5 17C38.6716 17 38 17.6716 38 18.5V40.5C38 41.0269 38.2764 41.5152 38.7283 41.7863L53.7283 50.7862C54.4386 51.2125 55.36 50.9821 55.7862 50.2717C56.2125 49.5614 55.9821 48.64 55.2717 48.2138L41 39.6507V18.5Z" /></svg>
