<?xml version="1.0" encoding="utf-8"?><svg version="1.1" xmlns="http://www.w3.org/2000/svg" viewBox="0 0 24 24" width="24" height="24"><path fill-rule="evenodd" d="M3 4.5C3 4.44292 3.09656 4.06449 4.02472 3.6426C4.8626 3.26174 6.09036 3 7.5 3C8.90964 3 10.1374 3.26174 10.9753 3.6426C11.9034 4.06449 12 4.44292 12 4.5C12 4.55708 11.9034 4.93551 10.9753 5.3574C10.1374 5.73826 8.90964 6 7.5 6C6.09036 6 4.8626 5.73826 4.02472 5.3574C3.09656 4.93551 3 4.55708 3 4.5ZM3.19711 7.17813C3.13159 7.14835 3.06579 7.11709 3 7.08433V8.5C3 8.52536 3.00865 8.62435 3.16774 8.79837C3.32981 8.97564 3.6031 9.17701 3.99711 9.36715C4.78448 9.74711 5.88343 10 7 10C7.55228 10 8 10.4477 8 11C8 11.5523 7.55228 12 7 12C5.61657 12 4.21552 11.6932 3.12789 11.1684C3.08502 11.1477 3.04238 11.1265 3 11.1049V12.5C3 12.5254 3.00865 12.6243 3.16774 12.7984C3.32981 12.9756 3.6031 13.177 3.99711 13.3671C4.78448 13.7471 5.88343 14 7 14C7.55228 14 8 14.4477 8 15C8 15.5523 7.55228 16 7 16C5.61657 16 4.21552 15.6932 3.12789 15.1684C3.08502 15.1477 3.04238 15.1265 3 15.1049V16.5C3 16.5254 3.00865 16.6243 3.16774 16.7984C3.32981 16.9756 3.6031 17.177 3.99711 17.3671C4.78448 17.7471 5.88343 18 7 18C7.55228 18 8 18.4477 8 19C8 19.5523 7.55228 20 7 20C5.61657 20 4.21552 19.6932 3.12789 19.1684C2.5844 18.9061 2.07644 18.5688 1.69163 18.1479C1.30385 17.7237 1 17.165 1 16.5V12.5V8.5V4.5C1 3.17637 2.13466 2.3048 3.19711 1.82187C4.34983 1.2979 5.87207 1 7.5 1C9.12793 1 10.6502 1.2979 11.8029 1.82187C12.8653 2.3048 14 3.17637 14 4.5C14 5.82363 12.8653 6.6952 11.8029 7.17813C10.6502 7.7021 9.12793 8 7.5 8C5.87207 8 4.34983 7.7021 3.19711 7.17813ZM12 11.5C12 11.4429 12.0966 11.0645 13.0247 10.6426C13.8626 10.2617 15.0904 10 16.5 10C17.9096 10 19.1374 10.2617 19.9753 10.6426C20.9034 11.0645 21 11.4429 21 11.5C21 11.5571 20.9034 11.9355 19.9753 12.3574C19.1374 12.7383 17.9096 13 16.5 13C15.0904 13 13.8626 12.7383 13.0247 12.3574C12.0966 11.9355 12 11.5571 12 11.5ZM20.8029 14.1781C20.8684 14.1483 20.9342 14.1171 21 14.0843V15.5C21 15.5571 20.9034 15.9355 19.9753 16.3574C19.1374 16.7383 17.9096 17 16.5 17C15.0904 17 13.8626 16.7383 13.0247 16.3574C12.0966 15.9355 12 15.5571 12 15.5V14.0843C12.0658 14.1171 12.1316 14.1483 12.1971 14.1781C13.3498 14.7021 14.8721 15 16.5 15C18.1279 15 19.6502 14.7021 20.8029 14.1781ZM23 11.5V15.5V19.5C23 20.8236 21.8653 21.6952 20.8029 22.1781C19.6502 22.7021 18.1279 23 16.5 23C14.8721 23 13.3498 22.7021 12.1971 22.1781C11.1347 21.6952 10 20.8236 10 19.5V15.5V11.5C10 10.1764 11.1347 9.3048 12.1971 8.82187C13.3498 8.2979 14.8721 8 16.5 8C18.1279 8 19.6502 8.2979 20.8029 8.82187C21.8653 9.3048 23 10.1764 23 11.5ZM20.8029 18.1781C20.8684 18.1483 20.9342 18.1171 21 18.0843V19.5C21 19.5571 20.9034 19.9355 19.9753 20.3574C19.1374 20.7383 17.9096 21 16.5 21C15.0904 21 13.8626 20.7383 13.0247 20.3574C12.0966 19.9355 12 19.5571 12 19.5V18.0843C12.0658 18.1171 12.1316 18.1483 12.1971 18.1781C13.3498 18.7021 14.8721 19 16.5 19C18.1279 19 19.6502 18.7021 20.8029 18.1781Z" fill="current"/></svg>
