<?xml version="1.0" encoding="utf-8"?><svg version="1.1" xmlns="http://www.w3.org/2000/svg" viewBox="0 0 24 24" width="24" height="24"><path xmlns="http://www.w3.org/2000/svg" fill="current" d="M4 3C2.34326 3 1 4.34314 1 6V14V18C1 19.6569 2.34326 21 4 21H8H20C21.6567 21 23 19.6569 23 18V10V6C23 4.34314 21.6567 3 20 3H16H4ZM3 6C3 5.44772 3.44775 5 4 5H15.5857L21 10.4142V18C21 18.5523 20.5522 19 20 19H8.41431L3 13.5858V6ZM21 7.58578L18.4143 5H20C20.5522 5 21 5.44772 21 6V7.58578ZM3 16.4142L5.58569 19H4C3.44775 19 3 18.5523 3 18V16.4142ZM11 12C11 11.4477 11.4478 11 12 11C12.5522 11 13 11.4477 13 12C13 12.5523 12.5522 13 12 13C11.4478 13 11 12.5523 11 12ZM12 9C10.3433 9 9 10.3431 9 12C9 13.6569 10.3433 15 12 15C13.6567 15 15 13.6569 15 12C15 10.3431 13.6567 9 12 9Z"/></svg>
