<?xml version="1.0" encoding="UTF-8"?><svg width="16" height="16" viewBox="0 0 16 16" xmlns="http://www.w3.org/2000/svg">
    <path fill-rule="evenodd" clip-rule="evenodd" d="M5 0C2.23858 0 0 2.23858 0 5V11C0 13.7614 2.23858 16 5 16H11C13.7614 16 16 13.7614 16 11V5C16 2.23858 13.7614 0 11 0H5ZM9 4C9 3.44772 8.55229 3 8 3C7.44772 3 7 3.44772 7 4V8C7 8.35126 7.1843 8.67677 7.4855 8.85749L9.9855 10.3575C10.4591 10.6416 11.0733 10.4881 11.3575 10.0145C11.6416 9.54092 11.4881 8.92665 11.0145 8.64251L9 7.43381V4Z" fill="current"/>
</svg>
