<?xml version="1.0" encoding="utf-8"?><svg version="1.1" xmlns="http://www.w3.org/2000/svg" viewBox="0 0 24 24" width="24" height="24"><path xmlns="http://www.w3.org/2000/svg" fill-rule="evenodd" d="M0 6C0 4.34315 1.34315 3 3 3H21C22.6569 3 24 4.34315 24 6V9V13C24 13.5523 23.5523 14 23 14C22.4477 14 22 13.5523 22 13V9V6C22 5.44771 21.5523 5 21 5H3C2.44772 5 2 5.44772 2 6V9V18C2 18.5523 2.44772 19 3 19H13C13.5523 19 14 19.4477 14 20C14 20.5523 13.5523 21 13 21H3C1.34315 21 0 19.6569 0 18V9V6ZM20 16C20.5523 16 21 16.4477 21 17V19H23C23.5523 19 24 19.4477 24 20C24 20.5523 23.5523 21 23 21H21V23C21 23.5523 20.5523 24 20 24C19.4477 24 19 23.5523 19 23V21H17C16.4477 21 16 20.5523 16 20C16 19.4477 16.4477 19 17 19H19V17C19 16.4477 19.4477 16 20 16ZM6 10C6 9.44772 6.44772 9 7 9C7.55228 9 8 9.44772 8 10C8 10.5523 7.55228 11 7 11C6.44772 11 6 10.5523 6 10ZM7 13C6.64936 13 6.31278 12.9398 6 12.8293V13.5C6 14.0523 5.55228 14.5 5 14.5C4.44772 14.5 4 14.0523 4 13.5V10C4 8.34315 5.34315 7 7 7C8.65685 7 10 8.34315 10 10C10 11.6569 8.65685 13 7 13Z" fill="current"/></svg>
