<svg width="16" height="16" viewBox="0 0 16 16" xmlns="http://www.w3.org/2000/svg">
<path id="Union" fill-rule="evenodd" clip-rule="evenodd" d="M14.4 8C14.4 11.5346 11.5346 14.4 8 14.4C4.46538 14.4 1.6 11.5346 1.6 8C1.6 4.46538 4.46538 1.6 8 1.6C11.5346 1.6 14.4 4.46538 14.4 8ZM16 8C16 12.4183 12.4183 16 8 16C3.58172 16 0 12.4183 0 8C0 3.58172 3.58172 0 8 0C12.4183 0 16 3.58172 16 8ZM11.5657 6.56569C11.8781 6.25327 11.8781 5.74673 11.5657 5.43431C11.2533 5.1219 10.7467 5.1219 10.4343 5.43431L7 8.86863L5.56569 7.43431C5.25327 7.12189 4.74673 7.12189 4.43431 7.43431C4.1219 7.74673 4.1219 8.25327 4.43431 8.56569L6.43431 10.5657C6.74673 10.8781 7.25327 10.8781 7.56569 10.5657L11.5657 6.56569Z" fill="current"/>
</svg>
