<?xml version="1.0" encoding="utf-8"?><svg xmlns="http://www.w3.org/2000/svg" version="1.1" viewBox="0 0 80 80" width="80" height="80"><path fill="current" d="M5 40C5 20.67 20.67 5 40 5C59.33 5 75 20.67 75 40C75 59.33 59.33 75 40 75C20.67 75 5 59.33 5 40ZM40 2C19.0132 2 2 19.0132 2 40C2 60.9868 19.0132 78 40 78C60.9868 78 78 60.9868 78 40C78 19.0132 60.9868 2 40 2ZM59.0607 30.0607C59.6464 29.4749 59.6464 28.5251 59.0607 27.9393C58.4749 27.3536 57.5251 27.3536 56.9393 27.9393L36 48.8787L27.0607 39.9393C26.4749 39.3536 25.5251 39.3536 24.9393 39.9393C24.3536 40.5251 24.3536 41.4749 24.9393 42.0607L34.9393 52.0607C35.5251 52.6464 36.4749 52.6464 37.0607 52.0607L59.0607 30.0607Z" /></svg>
