<svg width="24" height="24" viewBox="0 0 24 24" fill="none" xmlns="http://www.w3.org/2000/svg">
<g id="List with avas">
<path id="Union" fill-rule="evenodd" clip-rule="evenodd" d="M3.00005 7.20005C3.66279 7.20005 4.20005 6.66279 4.20005 6.00005C4.20005 5.33731 3.66279 4.80005 3.00005 4.80005C2.33731 4.80005 1.80005 5.33731 1.80005 6.00005C1.80005 6.66279 2.33731 7.20005 3.00005 7.20005ZM8.00005 5.00006C7.44776 5.00006 7.00005 5.44778 7.00005 6.00006C7.00005 6.55235 7.44776 7.00006 8.00005 7.00006H21C21.5523 7.00006 22 6.55235 22 6.00006C22 5.44778 21.5523 5.00006 21 5.00006H8.00005ZM8.00005 11.0001C7.44776 11.0001 7.00005 11.4478 7.00005 12.0001C7.00005 12.5523 7.44776 13.0001 8.00005 13.0001H21C21.5523 13.0001 22 12.5523 22 12.0001C22 11.4478 21.5523 11.0001 21 11.0001H8.00005ZM7.00005 18.0001C7.00005 17.4478 7.44776 17.0001 8.00005 17.0001H21C21.5523 17.0001 22 17.4478 22 18.0001C22 18.5523 21.5523 19.0001 21 19.0001H8.00005C7.44776 19.0001 7.00005 18.5523 7.00005 18.0001ZM4.20005 12C4.20005 12.6628 3.66279 13.2 3.00005 13.2C2.33731 13.2 1.80005 12.6628 1.80005 12C1.80005 11.3373 2.33731 10.8 3.00005 10.8C3.66279 10.8 4.20005 11.3373 4.20005 12ZM3.00005 19.2C3.66279 19.2 4.20005 18.6628 4.20005 18C4.20005 17.3373 3.66279 16.8 3.00005 16.8C2.33731 16.8 1.80005 17.3373 1.80005 18C1.80005 18.6628 2.33731 19.2 3.00005 19.2Z" fill="current"/>
</g>
</svg>
