<?xml version="1.0" encoding="utf-8"?><svg xmlns="http://www.w3.org/2000/svg" version="1.1" viewBox="0 0 24 24" width="24" height="24"><path d="M3 9.5C3 4.80558 6.80558 1 11.5 1C16.1944 1 20 4.80558 20 9.5V22C20 22.3978 19.7642 22.7578 19.3995 22.9167C19.0349 23.0757 18.6107 23.0033 18.3193 22.7325L15.25 19.8803L12.1807 22.7325C11.797 23.0892 11.203 23.0892 10.8193 22.7325L7.75 19.8803L4.68073 22.7325C4.38933 23.0033 3.96513 23.0757 3.60046 22.9167C3.23579 22.7578 3 22.3978 3 22V9.5ZM11.5 3C7.91015 3 5 5.91015 5 9.5V19.7056L7.06927 17.7826C7.45303 17.426 8.04697 17.426 8.43074 17.7826L11.5 20.6349L14.5693 17.7826C14.953 17.426 15.547 17.426 15.9307 17.7826L18 19.7056V9.5C18 5.91015 15.0899 3 11.5 3ZM10.3999 10.6C10.3999 11.4837 9.68356 12.2 8.7999 12.2C7.91625 12.2 7.1999 11.4837 7.1999 10.6C7.1999 9.71635 7.91625 9.00001 8.7999 9.00001C9.68356 9.00001 10.3999 9.71635 10.3999 10.6ZM14.2002 12.2C15.0839 12.2 15.8002 11.4837 15.8002 10.6C15.8002 9.71634 15.0839 9 14.2002 9C13.3165 9 12.6002 9.71634 12.6002 10.6C12.6002 11.4837 13.3165 12.2 14.2002 12.2Z" fill="current"/></svg>
