<?xml version="1.0" encoding="UTF-8" standalone="no"?>
<svg width="16" height="16" viewBox="0 0 16 16" xmlns="http://www.w3.org/2000/svg">
  <g id="Outline info">
    <path d="M 8,0 C 3.5912022,0 0,3.5912022 0,8 c 0,4.408798 3.5912022,8 8,8 4.408798,0 8,-3.591202 8,-8 C 16,3.5912022 12.408798,0 8,0 Z m 0,1.5996094 c 3.544094,0 6.400391,2.8562962 6.400391,6.4003906 0,3.544094 -2.856297,6.400391 -6.400391,6.400391 C 4.4559056,14.400391 1.5996094,11.544094 1.5996094,8 1.5996094,4.4559056 4.4559056,1.5996094 8,1.5996094 Z" fill="current" />
    <path d="M 8,7.5996094 A 0.80000001,0.80000001 0 0 0 7.1992187,8.4003906 V 11.199219 A 0.80000001,0.80000001 0 0 0 8,12 0.80000001,0.80000001 0 0 0 8.8007813,11.199219 V 8.4003906 A 0.80000001,0.80000001 0 0 0 8,7.5996094 Z" fill="current" />
    <path d="M 8,4 C 7.4536381,4 7,4.4536381 7,5 7,5.5463619 7.4536381,6 8,6 8.5463619,6 9,5.5463619 9,5 9,4.4536381 8.5463619,4 8,4 Z" fill="current" />
  </g>
</svg>
