<svg width="24" height="24" viewBox="0 0 24 24" fill="none" xmlns="http://www.w3.org/2000/svg">
<g id="Life buoy">
<path id="Union" fill-rule="evenodd" clip-rule="evenodd" d="M12 3C9.87497 3 7.92196 3.73648 6.38228 4.96813L9.24257 7.82842C10.033 7.30489 10.9809 7 12 7C13.0191 7 13.967 7.30489 14.7574 7.82842L17.6177 4.96813C16.078 3.73649 14.125 3 12 3ZM16.1716 9.24265C16.6951 10.0331 17 10.9809 17 12C17 13.0191 16.6951 13.9669 16.1716 14.7573L19.0319 17.6176C20.2635 16.078 21 14.125 21 12C21 9.875 20.2635 7.92202 19.0319 6.38235L16.1716 9.24265ZM14.7574 16.1716C13.967 16.6951 13.0191 17 12 17C10.9809 17 10.033 16.6951 9.24256 16.1716L6.38227 19.0319C7.92195 20.2635 9.87496 21 12 21C14.125 21 16.0781 20.2635 17.6177 19.0319L14.7574 16.1716ZM7.82836 14.7573C7.30486 13.9669 7 13.0191 7 12C7 10.9809 7.30487 10.0331 7.82837 9.24265L4.96807 6.38235C3.73646 7.92201 3 9.875 3 12C3 14.125 3.73646 16.078 4.96806 17.6176L7.82836 14.7573ZM1 12C1 5.92487 5.92487 1 12 1C18.0751 1 23 5.92487 23 12C23 18.0751 18.0751 23 12 23C5.92487 23 1 18.0751 1 12ZM9 12C9 10.3431 10.3431 9 12 9C13.6569 9 15 10.3431 15 12C15 13.6569 13.6569 15 12 15C10.3431 15 9 13.6569 9 12Z" fill="current"/>
</g>
</svg>
