<svg width="24" height="24" viewBox="0 0 24 24" xmlns="http://www.w3.org/2000/svg">
<path id="Union" fill-rule="evenodd" clip-rule="evenodd" d="M9 6C9 4.34315 10.3431 3 12 3C13.6569 3 15 4.34315 15 6C15 7.65685 13.6569 9 12 9C10.3431 9 9 7.65685 9 6ZM12 1C9.23858 1 7 3.23858 7 6C7 8.76142 9.23858 11 12 11C14.7614 11 17 8.76142 17 6C17 3.23858 14.7614 1 12 1ZM12 21C9.16358 21 6.23343 19.8268 4.35883 18C6.23343 16.1732 9.16358 15 12 15C14.8364 15 17.7666 16.1732 19.6412 18C17.7666 19.8268 14.8364 21 12 21ZM12 13C8.32187 13 4.45835 14.6637 2.22895 17.3632C1.92368 17.7329 1.92368 18.2671 2.22895 18.6368C4.45835 21.3363 8.32187 23 12 23C15.6781 23 19.5417 21.3363 21.771 18.6368C22.0763 18.2671 22.0763 17.7329 21.771 17.3632C19.5417 14.6637 15.6781 13 12 13Z" fill="current"/>
</svg>
