<svg width="48" height="48" viewBox="0 0 48 48" xmlns="http://www.w3.org/2000/svg">
<g id="Person">
<path id="Union" fill-rule="evenodd" clip-rule="evenodd" d="M24.5 6C20.9101 6 18 8.91015 18 12.5C18 16.0899 20.9101 19 24.5 19C28.0899 19 31 16.0899 31 12.5C31 8.91015 28.0899 6 24.5 6ZM15 12.5C15 7.25329 19.2533 3 24.5 3C29.7467 3 34 7.25329 34 12.5C34 17.7467 29.7467 22 24.5 22C19.2533 22 15 17.7467 15 12.5ZM8.51176 35.5C12.3435 39.4593 18.5289 42 24.5 42C30.4711 42 36.6565 39.4593 40.4882 35.5C36.6565 31.5406 30.4711 29 24.5 29C18.5289 29 12.3435 31.5406 8.51176 35.5ZM5.34343 34.5448C9.69631 29.2741 17.2749 26 24.5 26C31.7251 26 39.3037 29.2741 43.6566 34.5448C44.1145 35.0993 44.1145 35.9007 43.6566 36.4552C39.3037 41.7259 31.7251 45 24.5 45C17.2749 45 9.69631 41.7259 5.34343 36.4552C4.88552 35.9007 4.88552 35.0993 5.34343 34.5448Z" fill="current"/>
</g>
</svg>
