<svg width="24" height="24" viewBox="0 0 24 24" xmlns="http://www.w3.org/2000/svg">
<path id="Union" fill-rule="evenodd" clip-rule="evenodd" d="M12.9987 2.12158C12.9987 1.5693 12.5509 1.12158 11.9987 1.12158C11.4464 1.12158 10.9987 1.5693 10.9987 2.12158V6.10657H7.01367C6.46139 6.10657 6.01367 6.55428 6.01367 7.10657C6.01367 7.65885 6.46139 8.10657 7.01367 8.10657H10.9987V12.0916C10.9987 12.6438 11.4464 13.0916 11.9987 13.0916C12.5509 13.0916 12.9987 12.6438 12.9987 12.0916V8.10657H16.9836C17.5359 8.10657 17.9836 7.65885 17.9836 7.10657C17.9836 6.55428 17.5359 6.10657 16.9836 6.10657H12.9987V2.12158ZM7.01367 20.3228C6.46139 20.3228 6.01367 20.7705 6.01367 21.3228C6.01367 21.875 6.46139 22.3228 7.01367 22.3228H16.9836C17.5359 22.3228 17.9836 21.875 17.9836 21.3228C17.9836 20.7705 17.5359 20.3228 16.9836 20.3228H7.01367Z" fill="current"/>
</svg>
