<svg width="24" height="24" viewBox="0 0 24 24" fill="none" xmlns="http://www.w3.org/2000/svg">
<g id="Pencil">
<path id="Union" fill-rule="evenodd" clip-rule="evenodd" d="M17.7015 4.12212C17.3107 3.73147 16.6771 3.7318 16.2868 4.12286L14.4136 5.9993L18.0005 9.58618L19.877 7.71209C20.268 7.3216 20.2682 6.68798 19.8774 6.29729L17.7015 4.12212ZM16.5841 10.9982L13.0018 7.4159L5 15.4577V18.9999H8.54386L16.5841 10.9982ZM14.8713 2.70988C16.0424 1.5367 17.9431 1.53571 19.1154 2.70766L21.2914 4.88284C22.4638 6.0549 22.4634 7.95575 21.2903 9.12724L18.7066 11.7075L18.7054 11.7087L9.80837 20.5631C9.52728 20.8429 9.14684 20.9999 8.75026 20.9999H4C3.44772 20.9999 3 20.5522 3 19.9999V15.2513C3 14.8548 3.15701 14.4744 3.4367 14.1933L12.2911 5.29458L12.2923 5.29343L14.8713 2.70988Z" fill="current"/>
</g>
</svg>
