<?xml version="1.0" encoding="utf-8"?><svg xmlns="http://www.w3.org/2000/svg" version="1.1" viewBox="0 0 24 24" width="24" height="24"><path fill="current" d="M12 5C7.02944 5 3 9.02944 3 14C3 15.641 3.43825 17.1765 4.20343 18.4993C4.47997 18.9773 4.31661 19.5891 3.83855 19.8656C3.36049 20.1421 2.74876 19.9788 2.47222 19.5007C1.53569 17.8818 1 16.0019 1 14C1 7.92487 5.92487 3 12 3C14.9323 3 17.5973 4.14833 19.5683 6.01748L20.2929 5.29289C20.6834 4.90237 21.3166 4.90237 21.7071 5.29289C22.0976 5.68342 22.0976 6.31658 21.7071 6.70711L14.7076 13.7066C14.895 14.0982 15 14.5369 15 15C15 16.6569 13.6569 18 12 18C10.3431 18 9 16.6569 9 15C9 13.3431 10.3431 12 12 12C12.4631 12 12.9018 12.105 13.2934 12.2924L18.1535 7.43226C16.5433 5.92274 14.3799 5 12 5ZM21.4357 10.5316C21.9706 10.3939 22.5157 10.7159 22.6534 11.2507C22.8798 12.1305 23 13.052 23 14C23 16.0019 22.4643 17.8818 21.5278 19.5007C21.2512 19.9788 20.6395 20.1421 20.1615 19.8656C19.6834 19.5891 19.52 18.9773 19.7966 18.4993C20.5617 17.1765 21 15.641 21 14C21 13.2215 20.9014 12.4676 20.7165 11.7493C20.5789 11.2144 20.9008 10.6692 21.4357 10.5316ZM12 14C11.4477 14 11 14.4477 11 15C11 15.5523 11.4477 16 12 16C12.5523 16 13 15.5523 13 15C13 14.4477 12.5523 14 12 14Z"/></svg>