<?xml version="1.0" encoding="utf-8"?><svg version="1.1" xmlns="http://www.w3.org/2000/svg" viewBox="0 0 24 24" width="24" height="24"><path d="M19.4338 7.68394L18.5835 7.15758L19.4338 7.68394ZM6.72725 3.97401L6.2009 4.82428L6.2009 4.82428L6.72725 3.97401ZM3.97401 6.72725L4.82428 6.2009L4.82428 6.2009L3.97401 6.72725ZM4.56625 7.68394L3.71598 8.21029V8.21029L4.56625 7.68394ZM17.2727 3.97401L17.7991 4.82428V4.82428L17.2727 3.97401ZM20.026 6.72725L20.8763 7.25361L20.026 6.72725ZM7.68394 4.56625L8.21029 3.71598H8.21029L7.68394 4.56625ZM16.3161 4.56625L15.7897 3.71598L16.3161 4.56625ZM6.72725 20.026L7.25361 20.8763L6.72725 20.026ZM3.97401 17.2727L3.12375 16.7464L3.97401 17.2727ZM17.2727 20.026L16.7464 20.8763L17.2727 20.026ZM20.026 17.2727L19.1757 17.7991L20.026 17.2727ZM19.4338 16.3161L18.5835 16.8424L19.4338 16.3161ZM16.3161 19.4338L16.8424 18.5835L16.3161 19.4338ZM7.68394 19.4338L7.15758 18.5835L7.68394 19.4338ZM4.56625 16.3161L5.41651 16.8424L4.56625 16.3161ZM14 12C14 13.1046 13.1046 14 12 14V16C14.2091 16 16 14.2091 16 12H14ZM12 14C10.8954 14 10 13.1046 10 12H8C8 14.2091 9.79086 16 12 16V14ZM10 12C10 10.8954 10.8954 10 12 10V8C9.79086 8 8 9.79086 8 12H10ZM12 10C13.1046 10 14 10.8954 14 12H16C16 9.79086 14.2091 8 12 8V10ZM9 3V3.27607H11V3H9ZM8.21029 3.71598L7.25361 3.12375L6.2009 4.82428L7.15758 5.41651L8.21029 3.71598ZM3.12375 7.25361L3.71598 8.21029L5.41651 7.15758L4.82428 6.2009L3.12375 7.25361ZM16.7464 3.12375L15.7897 3.71598L16.8424 5.41651L17.7991 4.82428L16.7464 3.12375ZM20.284 8.21029L20.8763 7.25361L19.1757 6.2009L18.5835 7.15758L20.284 8.21029ZM9 20.7239V21H11V20.7239H9ZM15.7897 20.284L16.7464 20.8763L17.7991 19.1757L16.8424 18.5835L15.7897 20.284ZM20.8763 16.7464L20.284 15.7897L18.5835 16.8424L19.1757 17.7991L20.8763 16.7464ZM20.7239 15H21V13H20.7239V15ZM7.25361 20.8763L8.21029 20.284L7.15758 18.5835L6.2009 19.1757L7.25361 20.8763ZM3.71598 15.7897L3.12375 16.7464L4.82428 17.7991L5.41651 16.8424L3.71598 15.7897ZM3 15H3.27607V13H3V15ZM15 3.27607V3H13V3.27607H15ZM15 21V20.7239H13V21H15ZM3.27607 9H3V11H3.27607V9ZM21 9H20.7239V11H21V9ZM24 12C24 10.3431 22.6569 9 21 9V11C21.5523 11 22 11.4477 22 12H24ZM3 9C1.34315 9 0 10.3431 0 12H2C2 11.4477 2.44772 11 3 11V9ZM12 24C13.6569 24 15 22.6569 15 21H13C13 21.5523 12.5523 22 12 22V24ZM15 3C15 1.34315 13.6569 0 12 0V2C12.5523 2 13 2.44772 13 3H15ZM18.5835 7.15758C17.5453 8.83464 18.7515 11 20.7239 11V9C20.3186 9 20.0706 8.55497 20.284 8.21029L18.5835 7.15758ZM7.25361 3.12375C4.55992 1.45623 1.45623 4.55992 3.12375 7.25361L4.82428 6.2009C4.26844 5.303 5.303 4.26844 6.2009 4.82428L7.25361 3.12375ZM3.71598 8.21029C3.92935 8.55497 3.68144 9 3.27607 9V11C5.24846 11 6.45469 8.83464 5.41651 7.15758L3.71598 8.21029ZM17.7991 4.82428C18.697 4.26844 19.7316 5.303 19.1757 6.2009L20.8763 7.25361C22.5438 4.55992 19.4401 1.45623 16.7464 3.12375L17.7991 4.82428ZM9 3.27607C9 3.68144 8.55497 3.92935 8.21029 3.71598L7.15758 5.41651C8.83464 6.45469 11 5.24846 11 3.27607H9ZM15.7897 3.71598C15.445 3.92935 15 3.68144 15 3.27607H13C13 5.24846 15.1654 6.45469 16.8424 5.41651L15.7897 3.71598ZM11 3C11 2.44772 11.4477 2 12 2V0C10.3431 0 9 1.34315 9 3H11ZM3 13C2.44772 13 2 12.5523 2 12H0C0 13.6569 1.34315 15 3 15V13ZM21 15C22.6569 15 24 13.6569 24 12H22C22 12.5523 21.5523 13 21 13V15ZM9 21C9 22.6569 10.3431 24 12 24V22C11.4477 22 11 21.5523 11 21H9ZM6.2009 19.1757C5.303 19.7316 4.26844 18.697 4.82428 17.7991L3.12375 16.7464C1.45623 19.4401 4.55992 22.5438 7.25361 20.8763L6.2009 19.1757ZM16.7464 20.8763C19.4401 22.5438 22.5438 19.4401 20.8763 16.7464L19.1757 17.7991C19.7316 18.697 18.697 19.7316 17.7991 19.1757L16.7464 20.8763ZM20.284 15.7897C20.0706 15.445 20.3186 15 20.7239 15V13C18.7515 13 17.5453 15.1654 18.5835 16.8424L20.284 15.7897ZM16.8424 18.5835C15.1654 17.5453 13 18.7515 13 20.7239H15C15 20.3186 15.445 20.0706 15.7897 20.284L16.8424 18.5835ZM11 20.7239C11 18.7515 8.83464 17.5453 7.15758 18.5835L8.21029 20.284C8.55497 20.0706 9 20.3186 9 20.7239H11ZM5.41651 16.8424C6.45469 15.1654 5.24846 13 3.27607 13V15C3.68144 15 3.92935 15.445 3.71598 15.7897L5.41651 16.8424Z" fill="current"/></svg>
