<?xml version="1.0" encoding="utf-8"?><svg xmlns="http://www.w3.org/2000/svg" version="1.1" viewBox="0 0 80 80" width="80" height="80"><path fill="current" d="M40 5C20.67 5 5 20.67 5 40C5 59.33 20.67 75 40 75C59.33 75 75 59.33 75 40C75 20.67 59.33 5 40 5ZM2 40C2 19.0132 19.0132 2 40 2C60.9868 2 78 19.0132 78 40C78 60.9868 60.9868 78 40 78C19.0132 78 2 60.9868 2 40ZM53.0607 26.9393C53.6464 27.5251 53.6464 28.4749 53.0607 29.0607L42.1213 40L53.0607 50.9393C53.6464 51.5251 53.6464 52.4749 53.0607 53.0607C52.4749 53.6464 51.5251 53.6464 50.9393 53.0607L40 42.1213L29.0607 53.0607C28.4749 53.6464 27.5251 53.6464 26.9393 53.0607C26.3536 52.4749 26.3536 51.5251 26.9393 50.9393L37.8787 40L26.9393 29.0607C26.3536 28.4749 26.3536 27.5251 26.9393 26.9393C27.5251 26.3536 28.4749 26.3536 29.0607 26.9393L40 37.8787L50.9393 26.9393C51.5251 26.3536 52.4749 26.3536 53.0607 26.9393Z"/></svg>
