<svg width="16" height="16" viewBox="0 0 16 16" xmlns="http://www.w3.org/2000/svg">
<path id="Union" fill-rule="evenodd" clip-rule="evenodd" d="M8 14.4C11.5346 14.4 14.4 11.5346 14.4 8C14.4 4.46538 11.5346 1.6 8 1.6C4.46538 1.6 1.6 4.46538 1.6 8C1.6 11.5346 4.46538 14.4 8 14.4ZM8 16C12.4183 16 16 12.4183 16 8C16 3.58172 12.4183 0 8 0C3.58172 0 0 3.58172 0 8C0 12.4183 3.58172 16 8 16ZM11.0657 4.93431C11.3781 5.24672 11.3781 5.75326 11.0657 6.06568L9.1314 8.00001L10.9658 9.83441C11.2782 10.1468 11.2782 10.6534 10.9658 10.9658C10.6534 11.2782 10.1468 11.2782 9.83443 10.9658L8.00004 9.1314L6.16569 10.9658C5.85327 11.2782 5.34674 11.2782 5.03432 10.9658C4.72189 10.6534 4.72189 10.1469 5.03431 9.83443L6.86867 8.00003L5.03443 6.16578C4.72201 5.85336 4.72201 5.34683 5.03443 5.03441C5.34685 4.72199 5.85338 4.72199 6.1658 5.03441L8.00003 6.86864L9.93431 4.93432C10.2467 4.6219 10.7533 4.62189 11.0657 4.93431Z" fill="current"/>
</svg>
