<?xml version="1.0" encoding="UTF-8"?>
<svg
        version="1.1"
        viewBox="0 0 24 24"
        width="24"
        height="24"
        xmlns="http://www.w3.org/2000/svg">
    <g>
        <path fill="current"
              d="M 6,6 18,18 M 18,6 6,18" />
        <path fill="current"
              d="m 6,5 a 1,1 0 0 0 -0.7070313,0.2929687 1,1 0 0 0 0,1.4140625 L 10.585938,12 5.2929687,17.292969 a 1,1 0 0 0 0,1.414062 1,1 0 0 0 1.4140625,0 L 12,13.414063 l 5.292969,5.292968 a 1,1 0 0 0 1.414062,0 1,1 0 0 0 0,-1.414062 L 13.414063,12 18.707031,6.7070312 a 1,1 0 0 0 0,-1.4140625 1,1 0 0 0 -1.414062,0 L 12,10.585938 6.7070312,5.2929687 A 1,1 0 0 0 6,5 Z"/>
    </g>
</svg>