<?xml version="1.0" encoding="utf-8"?><svg xmlns="http://www.w3.org/2000/svg" xmlns:xlink="http://www.w3.org/1999/xlink"><symbol fill="none" viewBox="0 0 24 24" id="arrow-external" xmlns="http://www.w3.org/2000/svg"><path d="M19.609 4.565 11 13.174M15.696 3h5.478v5.478" stroke-width="var(--thickness )" stroke-linecap="round" stroke-linejoin="round" stroke="var(--accent)"/><path d="M21 13.5V19a2 2 0 0 1-2 2H5a2 2 0 0 1-2-2V5a2 2 0 0 1 2-2h6.5" stroke-width="var(--thickness)" stroke-linecap="round" stroke-linejoin="round" stroke="var(--accent)"/></symbol><symbol fill="none" viewBox="0 0 24 24" id="arrow-left" xmlns="http://www.w3.org/2000/svg"><path d="M19 12H5" stroke="var(--accent)" stroke-width="var(--thickness )" stroke-linecap="round" stroke-linejoin="round"/><path d="m12 19-7-7 7-7" stroke="var(--accent)" stroke-width="var(--thickness)" stroke-linecap="round" stroke-linejoin="round"/></symbol><symbol fill="none" viewBox="0 0 24 24" id="arrow-right" xmlns="http://www.w3.org/2000/svg"><path d="M5 12h14" stroke="var(--accent)" stroke-width="var(--thickness )" stroke-linecap="round" stroke-linejoin="round"/><path d="m12 5 7 7-7 7" stroke="var(--accent)" stroke-width="var(--thickness)" stroke-linecap="round" stroke-linejoin="round"/></symbol><symbol viewBox="0 0 24 24" id="arrow-up" xmlns="http://www.w3.org/2000/svg"><g fill="var(--accent)"><path d="m12 5-7 7m7-7 7 7m-7-7v14M12 4a1 1 0 0 0-.707.293l-7 7a1 1 0 0 0 0 1.414 1 1 0 0 0 1.414 0L11 7.414V19a1 1 0 0 0 1 1 1 1 0 0 0 1-1V7.414l5.293 5.293a1 1 0 0 0 1.414 0 1 1 0 0 0 0-1.414l-7-7A1 1 0 0 0 12 4Z"/></g></symbol><symbol viewBox="0 0 24 24" id="burger" xmlns="http://www.w3.org/2000/svg"><path fill="var(--accent)" d="M3 5a1 1 0 0 1 1-1h16a1 1 0 1 1 0 2H4a1 1 0 0 1-1-1Zm0 7a1 1 0 0 1 1-1h16a1 1 0 1 1 0 2H4a1 1 0 0 1-1-1Zm1 6a1 1 0 1 0 0 2h16a1 1 0 1 0 0-2H4Z"/></symbol><symbol viewBox="0 0 24 24" id="chevron-down" xmlns="http://www.w3.org/2000/svg"><path fill="var(--accent)" d="M12 15.47a1 1 0 0 1-.71-.29l-4.95-4.95a1 1 0 0 1 0-1.41 1 1 0 0 1 1.42 0L12 13.06l4.24-4.24a1 1 0 0 1 1.42 0 1 1 0 0 1 0 1.41l-4.95 4.95a1 1 0 0 1-.71.29Z"/></symbol><symbol viewBox="0 0 24 24" id="chevron-right" xmlns="http://www.w3.org/2000/svg"><path fill="var(--accent)" d="M10 6a1 1 0 0 0-.707.293 1 1 0 0 0 0 1.414L13.586 12l-4.293 4.293a1 1 0 0 0 0 1.414 1 1 0 0 0 1.414 0l5-5a1 1 0 0 0 0-1.414l-5-5A1 1 0 0 0 10 6Z"/></symbol><symbol viewBox="0 0 24 24" id="cross" xmlns="http://www.w3.org/2000/svg"><g fill="var(--accent)"><path d="m6 6 12 12m0-12L6 18M6 5a1 1 0 0 0-.707.293 1 1 0 0 0 0 1.414L10.586 12l-5.293 5.293a1 1 0 0 0 0 1.414 1 1 0 0 0 1.414 0L12 13.414l5.293 5.293a1 1 0 0 0 1.414 0 1 1 0 0 0 0-1.414L13.414 12l5.293-5.293a1 1 0 0 0 0-1.414 1 1 0 0 0-1.414 0L12 10.586 6.707 5.293A1 1 0 0 0 6 5Z"/></g></symbol><symbol viewBox="0 0 24 24" id="info-rounded" xmlns="http://www.w3.org/2000/svg"><path fill-rule="evenodd" clip-rule="evenodd" d="M12 21a9 9 0 1 0 0-18 9 9 0 0 0 0 18Zm0 2c6.075 0 11-4.925 11-11S18.075 1 12 1 1 5.925 1 12s4.925 11 11 11Zm-1-11a1 1 0 1 1 2 0v4a1 1 0 1 1-2 0v-4Zm1-2.8a1.2 1.2 0 1 0 0-2.4 1.2 1.2 0 0 0 0 2.4Z" fill="var(--accent)"/></symbol><symbol viewBox="0 0 24 24" id="minus" xmlns="http://www.w3.org/2000/svg"><path fill="var(--accent)" d="M20 13H4c-.6 0-1-.4-1-1s.4-1 1-1h16c.6 0 1 .4 1 1s-.4 1-1 1z"/></symbol><symbol viewBox="0 0 96 96" id="play-button" xmlns="http://www.w3.org/2000/svg"><path d="M90.153 50.945 21.833 90.39A4.554 4.554 0 0 1 15 86.445V7.555a4.553 4.553 0 0 1 6.832-3.945l68.32 39.447a4.554 4.554 0 0 1 0 7.888Z" fill="var(--accent)"/></symbol><symbol viewBox="0 0 24 24" id="plus" xmlns="http://www.w3.org/2000/svg"><path fill="var(--accent)" d="M12 3a1 1 0 0 1 1 1v7h7a1 1 0 1 1 0 2h-7v7a1 1 0 1 1-2 0v-7H4a1 1 0 1 1 0-2h7V4a1 1 0 0 1 1-1Z"/></symbol><symbol viewBox="0 0 100 100" id="promo-icons" xmlns="http://www.w3.org/2000/svg"/><symbol viewBox="0 0 80 80" id="quote" xmlns="http://www.w3.org/2000/svg"><path d="m8.741 54.02-2.41.5v8.813h2.998c8.342 0 14.706-2.409 18.912-7.162 5.656-6.4 5.087-14.619 5.069-14.713v-25c0-.828-.316-1.623-.878-2.21a2.937 2.937 0 0 0-2.12-.915H9.329c-3.307 0-5.996 2.804-5.996 6.25v21.875c0 .83.316 1.624.878 2.21a2.937 2.937 0 0 0 2.12.915h12.224a9.307 9.307 0 0 1-1.286 4.363c-1.52 2.503-4.388 4.21-8.528 5.075ZM52.074 54.02l-2.41.5v8.813h2.998c8.342 0 14.706-2.409 18.912-7.162 5.656-6.4 5.087-14.619 5.069-14.713v-25c0-.828-.316-1.623-.878-2.21a2.937 2.937 0 0 0-2.12-.915H52.662c-3.306 0-5.995 2.804-5.995 6.25v21.875c0 .83.315 1.624.878 2.21a2.937 2.937 0 0 0 2.12.915h12.224a9.308 9.308 0 0 1-1.286 4.363c-1.52 2.503-4.389 4.21-8.529 5.075Z" fill="var(--accent)"/></symbol><symbol viewBox="0 0 24 24" id="search" xmlns="http://www.w3.org/2000/svg"><path fill="var(--accent)" d="M5 10a5 5 0 1 1 10 0 5 5 0 0 1-10 0Zm5-7a7 7 0 1 0 4.2 12.6.999.999 0 0 0 .093.107l5 5a1 1 0 0 0 1.414-1.414l-5-5a.999.999 0 0 0-.107-.093A7 7 0 0 0 10 3Z"/></symbol></svg>